P2
32 30
255
121 115 102 115 118 107 113 119 114 111
117 117 124 116 114 120 123 123 129 127
124 122 124 123 124 122 120 119 118 116
117 115 116 131 116 121 124 110 115 122
111 111 118 115 116 116 114 116 119 118
120 116 117 119 119 116 116 114 113 113
113 116 116 117 116 132 114 113 111 106
115 120 109 111 117 112 114 118 118 119
121 116 120 117 117 117 115 113 114 114
113 113 113 114 116 114 115 108 115 124
115 111 116 116 111 114 120 112 120 129
128 134 133 128 126 115 115 115 115 118
118 117 113 114 117 117 115 115 116 101
108 114 115 105 108 106 105 112 121 121
131 137 133 131 133 126 123 115 114 117
121 119 129 127 112 110 112 116 115 115
116 120 111 116 121 110 120 116 115 113
131 114 129 126 112 101 110 130 134 120
107 121 138 132 127 136 122 110 111 114
115 114 115 122 124 120 122 119 125 131
129 128 128 111 109 109 80 77 86 97
107 124 117 113 129 134 119 137 122 111
112 113 113 115 114 109 109 104 109 119
114 117 109 111 97 108 139 129 90 65
46 48 82 128 132 108 113 114 109 121
117 114 115 115 117 120 121 122 101 101
108 105 103 102 106 101 92 127 117 115
143 92 68 59 66 102 159 144 122 107
109 114 121 121 119 118 119 118 117 131
116 119 115 107 105 126 117 108 109 114
111 158 200 156 92 84 69 96 170 162
126 118 110 121 121 115 114 114 120 117
116 121 129 128 127 131 119 146 158 137
137 124 115 144 156 111 50 60 96 80
164 181 139 130 120 124 119 115 113 115
113 113 119 134 128 132 131 125 115 130
158 140 137 154 140 134 43 45 8 43
72 99 120 137 116 133 126 123 109 116
116 108 107 113 112 146 120 126 110 123
132 128 148 139 158 163 152 144 53 0
6 61 128 142 145 116 139 147 134 123
110 118 119 116 122 123 128 110 118 113
98 108 128 143 138 166 147 136 145 130
80 104 70 26 152 154 111 132 174 144
133 122 120 124 121 120 119 119 123 86
95 128 111 114 130 164 165 198 110 133
180 146 103 202 180 113 130 116 87 135
168 125 122 127 124 128 119 126 118 106
123 111 124 138 128 124 129 133 145 162
135 169 204 225 191 189 121 99 147 161
93 122 133 103 105 99 107 125 125 126
113 111 116 131 131 108 103 123 131 143
151 140 163 156 148 223 210 198 145 118
162 163 126 127 99 114 118 119 119 122
123 129 119 106 113 138 133 114 111 111
119 127 150 178 199 162 154 218 204 177
162 102 130 119 160 125 113 127 122 125
121 125 122 126 121 112 111 106 107 130
118 124 126 124 149 182 218 190 163 200
210 178 142 83 81 147 159 142 144 120
125 128 118 122 125 123 110 115 109 103
105 127 113 143 124 109 119 184 238 151
144 171 180 150 122 78 97 119 108 145
166 122 145 146 117 114 126 126 115 122
114 110 94 116 109 134 115 112 99 173
222 170 144 159 126 83 69 68 131 113
123 174 156 109 145 156 126 114 123 120
117 123 114 140 122 123 108 122 124 136
106 143 203 192 155 123 105 79 70 107
221 176 163 167 125 92 142 157 126 134
128 111 118 125 107 129 106 117 123 111
121 128 104 118 193 227 193 131 108 88
118 216 236 179 136 141 151 124 113 125
95 130 126 116 127 126 111 121 96 129
132 106 107 142 120 126 171 163 142 108
59 102 182 255 207 167 113 144 145 133
121 142 138 141 129 130 136 134 119 118
106 138 134 115 116 147 108 106 144 139
105 131 106 128 145 192 210 167 101 95
97 112 99 95 126 158 141 125 126 133
120 123 119 120 92 105 131 134 85 99
117 124 102 132 112 109 123 170 178 149
101 106 109 130 123 120 108 128 161 149
133 129 106 112 111 124 115 114 122 139
88 104 103 97 95 119 105 75 114 132
125 142 156 129 128 131 125 123 120 128
128 138 135 129 112 114 115 115 108 118
132 124 87 94 108 106 105 124 107 91
131 149 126 156 126 118 119 122 125 114
111 132 147 104 142 131 122 130 120 92
119 128 140 153 90 90 105 96 103 104
147 149 128 131 109 71 88 95 119 117
122 129 131 135 138 117 109 139 117 131
104 86 114 124 133 150 78 92 102 102
123 105 130 109 94 61 71 79 85 87
116 114 124 135 138 148 143 132 111 126

