P2
32 30
255
187 151 157 164 140 138 144 137 136 133
132 130 133 129 128 132 128 134 133 129
121 129 131 131 132 128 131 128 130 132
131 132 132 137 149 144 140 150 152 146
132 136 137 128 133 131 130 138 129 131
136 130 132 126 135 126 134 126 130 135
129 137 133 132 134 151 165 146 135 156
168 146 140 141 141 138 136 142 129 132
126 130 135 129 133 124 131 131 135 128
133 133 129 138 133 135 135 132 151 155
140 148 150 130 136 135 132 128 126 131
120 125 122 123 126 130 129 124 132 137
132 128 130 134 135 133 132 132 132 123
146 150 134 130 146 131 147 149 132 127
122 116 106 114 115 125 121 123 134 137
136 132 136 129 131 133 136 135 131 133
133 149 155 165 151 146 152 131 145 149
144 131 114 108 111 107 116 117 101 103
118 126 142 131 134 132 133 132 138 135
137 135 137 153 147 143 145 156 166 165
160 147 140 131 127 124 124 123 118 111
100 78 65 98 128 138 138 131 134 132
137 131 133 129 131 152 136 126 125 139
138 135 134 133 145 152 116 92 142 176
177 149 131 93 63 67 108 134 136 128
127 129 135 129 135 134 135 140 131 140
130 135 132 122 125 130 165 149 112 143
168 182 121 108 151 148 132 119 114 127
137 141 135 135 129 127 129 130 134 135
119 113 135 130 129 136 132 126 141 166
135 157 140 105 102 136 157 164 152 153
147 115 127 142 138 141 130 131 131 134
137 149 153 151 150 139 144 163 151 148
154 194 155 156 138 138 167 148 145 190
173 156 156 115 126 138 131 139 129 134
139 147 142 166 166 159 141 122 128 159
135 157 179 189 159 163 136 136 128 141
165 120 149 129 120 113 124 137 126 124
117 124 131 132 127 146 107 112 140 148
147 119 103 129 178 164 164 136 101 153
176 133 114 81 115 137 122 117 127 136
130 118 124 141 145 143 140 138 113 132
153 152 162 140 121 120 171 131 147 140
129 126 134 167 118 102 126 131 143 141
132 154 132 117 126 137 137 140 138 133
143 147 156 145 153 153 135 118 193 130
109 152 136 120 98 97 149 169 132 158
168 137 129 147 131 128 131 141 143 138
144 171 163 167 148 145 152 150 143 141
172 154 65 78 98 118 153 125 97 100
140 191 180 136 133 144 135 136 134 139
146 134 135 156 131 150 145 153 162 156
146 165 147 146 89 66 135 131 159 146
119 127 165 181 163 136 139 144 139 147
150 144 137 118 125 146 117 144 136 142
132 113 121 136 147 176 121 121 195 163
143 175 161 173 126 182 154 144 141 129
128 139 132 136 141 135 123 137 147 156
140 150 136 136 139 129 166 192 170 160
169 144 139 157 183 154 144 171 150 150
135 125 127 141 126 133 128 117 120 121
136 141 134 158 134 147 146 148 175 255
223 180 169 152 144 142 152 160 199 214
179 163 144 139 139 143 126 134 133 116
123 131 129 141 136 149 128 152 167 141
165 229 220 157 183 145 96 110 174 160
143 190 151 145 139 134 127 145 128 129
130 116 122 128 125 126 127 138 142 119
129 137 134 147 178 134 108 68 34 49
59 77 108 148 176 159 111 113 123 143
133 119 130 119 132 132 131 128 127 131
141 127 129 146 122 109 151 124 94 51
19 0 69 93 131 148 170 165 140 141
117 111 106 109 148 134 142 119 124 136
122 141 161 146 127 132 135 112 118 131
132 112 62 44 110 100 151 119 151 124
117 136 110 96 118 138 137 134 147 131
142 150 139 153 144 147 147 128 148 117
94 102 154 172 136 116 148 143 142 115
147 137 136 131 120 149 150 169 152 132
143 143 142 133 123 117 143 161 140 127
153 119 104 87 132 194 194 134 148 115
114 100 138 126 142 157 155 175 178 145
121 117 123 164 162 147 120 128 149 128
142 128 144 120 115 72 88 172 192 205
137 81 76 91 115 135 171 176 167 205
175 175 110 113 122 178 180 144 113 140
127 132 134 90 108 128 120 93 131 134
136 156 123 82 113 118 146 138 141 162
155 169 176 149 129 118 124 171 155 117
134 128 146 141 122 124 143 181 156 160
135 142 152 142 155 167 145 140 154 150
141 155 135 169 138 134 109 110 112 157
128 123 136 120 128 147 120 129 144 169
148 148 141 180 169 171 144 120 130 145
144 145 130 134 132 151 139 150 109 102

