P2
32 30
255
104 119 114 127 123 116 120 128 121 117
123 121 126 120 117 125 126 125 129 127
122 121 124 122 123 120 119 117 116 116
117 116 116 134 131 125 126 127 125 128
117 117 124 119 119 119 115 121 123 119
122 115 116 116 119 115 116 113 112 114
113 117 117 117 118 137 130 119 110 120
125 125 115 117 122 117 118 124 121 123
122 116 121 114 114 114 113 113 114 113
114 115 113 117 118 118 118 100 124 131
119 120 122 120 115 118 123 114 122 129
123 128 128 121 118 109 109 109 112 117
119 117 114 116 119 119 117 116 117 91
115 118 115 106 112 109 108 115 123 121
130 131 123 123 122 117 110 105 109 111
117 115 133 133 114 112 115 118 115 116
117 124 120 126 129 117 127 118 124 122
136 118 125 118 112 94 106 118 108 101
102 114 133 126 132 147 129 111 113 115
117 116 116 128 128 128 123 133 134 144
139 132 130 120 109 97 80 94 95 88
98 97 88 98 125 130 121 147 129 112
114 114 114 115 116 120 108 105 103 129
118 120 109 106 102 119 126 112 105 102
83 71 83 100 89 75 105 116 108 123
117 114 115 114 119 122 124 128 103 109
105 110 106 100 105 108 112 128 121 139
168 123 80 66 86 90 118 106 106 109
110 115 122 123 119 117 120 118 119 132
109 113 116 105 105 125 121 111 119 144
137 172 190 132 82 74 70 93 114 119
111 110 113 126 125 118 113 114 121 119
119 131 132 138 138 133 125 155 166 144
157 182 139 159 188 136 81 42 56 89
117 127 120 111 122 129 122 117 111 112
116 118 120 154 146 148 136 128 121 140
160 147 175 202 163 178 92 65 34 74
85 97 108 85 86 109 120 121 107 111
113 110 108 111 110 152 113 127 120 133
140 120 135 110 169 177 157 175 107 75
88 126 167 148 142 87 131 140 117 110
105 110 119 121 124 126 132 117 101 114
112 115 136 139 136 118 140 138 138 138
119 125 107 100 164 167 130 133 172 151
130 125 113 118 121 123 120 123 128 90
94 124 126 115 131 161 167 170 131 130
136 168 129 177 153 95 128 126 83 142
184 127 117 132 118 126 116 129 120 112
129 125 130 149 141 133 137 136 150 164
135 157 119 160 153 176 127 75 68 105
73 123 150 100 98 99 102 126 123 130
118 116 120 131 125 123 112 133 147 149
151 149 159 164 92 148 194 194 147 103
104 127 107 98 93 108 111 115 114 128
128 131 122 112 118 130 122 120 110 119
128 119 139 173 207 186 159 216 252 202
154 110 102 119 113 104 93 115 112 115
112 124 118 126 128 118 118 108 114 133
123 128 131 122 141 177 237 214 200 217
240 190 141 99 95 130 102 109 103 106
100 110 105 119 119 120 112 118 116 101
111 132 124 149 133 118 125 179 255 220
202 201 217 187 131 77 98 99 105 116
140 121 121 127 114 114 118 124 123 126
124 105 95 117 114 138 123 126 122 160
217 217 194 170 170 123 69 67 148 119
104 155 135 105 128 136 122 120 118 116
123 126 126 136 116 118 100 119 131 125
108 143 173 184 180 94 78 44 33 97
206 158 148 163 127 96 122 141 128 136
127 113 125 124 121 127 104 110 113 111
126 122 107 135 149 185 193 80 35 0
45 166 219 159 166 167 170 150 119 118
82 119 124 120 137 129 121 124 102 123
129 113 130 153 133 140 135 124 122 65
3 43 79 178 193 173 178 166 148 131
119 139 136 144 138 138 143 139 129 123
112 135 133 128 126 150 114 109 120 105
74 65 54 101 79 146 193 184 156 120
106 114 93 91 132 183 163 151 142 137
131 128 120 117 87 88 139 158 107 101
106 80 72 67 46 89 94 134 173 152
117 109 129 136 130 141 123 160 191 160
132 127 112 131 120 115 94 116 136 148
109 103 111 83 63 65 34 67 131 159
136 125 125 112 134 140 146 151 131 178
161 172 135 128 117 134 128 102 85 123
138 138 106 86 105 107 95 89 72 65
109 138 105 115 106 122 144 142 143 137
120 165 186 142 155 136 130 136 117 67
118 134 157 172 101 94 120 127 126 128
145 155 128 111 119 96 106 123 153 141
141 153 129 164 152 146 120 139 119 129
85 68 118 138 152 175 97 99 115 119
129 122 130 148 128 97 103 88 97 119
138 136 139 152 140 164 157 161 130 133

