P2
32 30
255
138 142 128 123 139 134 134 129 134 136
130 132 132 134 135 130 132 130 130 132
141 142 140 142 143 145 144 147 147 145
146 145 145 147 131 133 143 124 132 136
137 136 131 137 137 138 140 132 134 137
138 145 144 148 143 147 146 150 149 146
148 144 144 144 143 126 117 133 148 123
121 133 129 130 129 132 136 131 139 140
141 145 143 150 148 153 150 148 147 149
147 145 148 142 143 141 141 155 129 123
134 128 126 136 132 131 132 138 143 141
154 153 150 157 157 152 152 156 152 147
145 146 146 144 143 142 144 143 143 165
137 130 139 142 132 141 134 133 136 147
147 152 165 164 167 168 171 165 153 150
148 151 140 142 146 146 144 143 145 143
143 139 136 128 129 132 131 143 125 122
124 142 153 160 165 177 167 175 191 185
159 154 144 151 144 136 141 146 142 142
140 140 139 130 137 131 145 121 121 116
117 128 128 133 148 167 169 159 152 160
158 176 195 172 146 143 143 136 138 145
142 143 143 144 143 130 151 147 152 126
138 140 140 155 136 132 165 190 144 120
125 133 126 156 193 201 163 141 145 145
148 145 140 141 141 140 137 136 152 138
155 141 146 154 146 142 117 133 155 122
104 97 152 167 123 125 162 194 178 143
140 140 142 139 142 144 145 144 142 133
154 159 135 144 152 150 148 150 130 94
132 86 70 121 120 134 159 159 171 185
173 161 145 136 138 140 149 148 148 143
140 137 142 137 149 145 153 126 122 125
108 69 118 70 71 65 43 123 181 149
161 175 173 181 146 138 141 143 152 153
146 141 143 109 123 114 140 132 139 116
121 121 98 93 132 138 137 91 82 122
159 183 147 154 186 185 153 144 148 147
151 147 149 150 151 120 150 137 135 116
112 139 147 163 131 141 155 159 187 177
130 119 191 229 192 150 157 158 164 155
151 152 149 144 148 144 136 119 149 154
145 135 119 135 150 196 155 162 165 199
192 218 170 152 220 225 183 139 137 130
144 133 150 144 138 138 145 142 138 152
158 129 139 147 124 109 123 160 119 163
197 174 158 208 206 207 186 177 195 139
96 125 146 124 146 141 146 140 137 144
140 120 136 103 128 124 121 109 129 113
137 156 205 165 131 169 181 181 175 160
193 136 80 127 152 140 149 141 143 137
132 137 145 120 137 116 147 122 108 107
137 90 130 151 186 144 68 97 140 144
127 121 157 149 126 138 151 148 148 139
133 132 137 139 149 130 135 128 154 133
133 147 152 111 97 103 128 79 0 58
117 155 133 98 172 132 163 159 163 169
161 152 149 138 130 131 155 140 139 127
144 141 139 143 144 125 82 66 74 64
42 62 118 139 104 162 192 157 204 162
180 175 161 151 155 142 142 149 154 157
157 128 142 125 134 130 138 117 95 40
52 75 98 93 115 162 170 224 165 142
167 138 169 169 148 140 153 142 133 148
152 164 165 139 143 130 137 123 121 130
119 73 66 144 140 151 180 191 167 198
181 140 169 144 164 161 137 132 152 149
135 143 148 145 155 151 149 137 132 142
149 130 156 143 111 177 209 216 208 185
160 185 180 147 143 138 172 140 109 130
142 144 141 144 138 137 152 147 143 144
137 139 139 121 184 198 142 178 232 255
248 228 158 148 115 136 138 132 154 132
147 143 140 136 128 134 141 138 154 143
139 148 126 122 141 150 192 208 164 149
206 205 222 183 100 86 68 141 141 177
173 141 146 125 125 130 135 133 135 143
147 136 135 141 163 150 160 158 164 183
199 171 160 140 158 129 77 61 98 130
140 158 180 182 160 124 111 112 130 137
129 133 136 150 175 188 148 117 123 141
150 205 197 200 154 102 96 115 74 117
121 141 126 140 143 132 146 114 97 115
139 140 132 124 137 157 179 144 131 135
119 147 139 172 168 202 211 125 81 86
114 154 155 181 153 142 128 128 141 91
102 80 132 138 132 118 125 157 179 135
138 128 137 180 169 147 154 172 150 164
146 147 158 173 173 148 125 138 138 131
142 110 90 106 110 124 126 142 146 188
154 140 124 122 154 167 147 119 119 129
121 93 94 120 111 133 142 126 125 127
134 128 158 112 129 118 134 127 133 148
168 182 154 142 136 114 151 160 147 136
155 164 164 120 125 122 142 160 146 129
140 132 142 141 158 136 142 117 139 135

