P2
32 30
255
168 139 124 124 117 103 110 96 99 100
97 98 103 97 97 95 99 104 104 103
101 110 108 111 115 113 115 113 115 114
113 112 112 121 108 112 120 103 118 119
99 103 102 98 105 102 104 102 102 107
111 114 112 114 115 112 118 114 118 118
115 117 113 113 112 118 120 119 125 113
131 121 108 109 108 109 106 104 100 100
104 110 115 119 119 116 119 117 119 115
117 116 114 116 113 112 111 128 119 118
117 117 113 102 105 101 101 100 99 103
105 110 109 115 119 120 120 121 125 121
113 113 113 114 113 111 112 110 109 128
119 122 117 109 112 107 122 121 105 104
94 100 103 106 112 123 125 123 126 128
127 123 114 109 115 116 117 115 113 112
112 130 133 133 118 114 120 111 111 108
110 104 96 99 100 100 104 118 122 120
109 120 129 128 117 105 113 119 119 117
117 114 116 128 125 107 128 113 133 121
119 114 105 89 111 126 113 89 89 101
86 91 95 106 117 127 126 109 113 117
118 115 113 110 109 125 129 110 117 99
111 109 114 125 118 118 129 106 91 94
113 109 104 103 103 101 107 110 120 113
113 112 115 111 112 110 109 114 115 114
125 112 112 108 104 104 121 132 90 75
92 104 95 99 113 127 157 159 124 102
117 121 117 112 108 110 115 112 115 113
109 107 109 109 113 116 111 110 110 101
80 76 82 80 71 139 169 172 208 201
156 108 112 119 117 121 120 117 122 118
116 117 118 112 107 107 120 118 110 111
112 109 100 53 17 25 64 137 193 203
233 215 170 128 109 115 111 122 123 130
127 129 127 108 111 113 114 89 101 115
107 122 125 134 110 80 18 56 44 75
134 125 170 171 149 138 118 126 114 116
108 105 118 122 115 113 94 87 106 111
109 103 97 136 151 152 145 72 16 100
92 25 72 95 163 158 127 113 133 139
120 111 108 119 134 126 119 111 125 120
118 119 119 111 100 162 161 107 155 125
84 148 94 71 110 119 139 108 146 117
114 128 126 111 109 122 132 127 120 114
120 125 122 125 126 117 99 132 148 109
174 123 84 161 128 87 127 159 163 136
126 114 114 111 125 120 127 128 132 120
124 131 133 118 105 105 113 112 107 115
143 143 153 114 96 135 148 120 159 154
204 178 109 113 124 121 129 122 126 117
121 114 118 137 125 105 116 118 110 113
113 118 113 107 136 99 99 109 170 161
173 166 215 209 131 116 129 129 134 131
129 124 117 89 101 136 117 113 126 117
96 91 105 97 100 111 92 88 81 101
150 189 210 164 192 188 158 143 139 131
130 136 122 119 113 107 98 116 117 130
120 130 111 118 131 101 113 122 104 101
87 88 134 140 162 204 229 216 212 151
153 141 132 136 121 120 110 100 90 101
104 99 101 126 105 112 122 126 150 152
111 112 94 80 110 150 153 205 215 255
215 136 155 156 131 119 120 121 102 95
96 121 110 114 113 121 99 106 124 133
163 155 123 134 127 78 71 122 159 162
180 216 175 122 142 144 114 115 119 118
100 92 90 117 117 115 121 118 111 102
108 111 151 147 129 169 154 103 46 31
41 74 112 168 173 130 115 100 81 123
119 90 96 97 89 122 116 114 124 110
112 111 106 101 167 163 156 178 185 151
94 8 14 61 50 121 147 128 123 133
122 101 77 68 113 106 111 93 89 116
106 112 111 110 96 118 201 163 120 147
197 176 170 77 44 3 0 77 136 137
127 132 106 59 76 103 108 107 117 107
111 130 121 119 129 159 170 135 195 135
108 136 172 159 166 111 100 42 20 45
114 149 171 154 116 109 98 115 112 108
112 126 129 128 125 137 143 131 111 114
166 162 117 137 148 136 144 113 74 54
48 54 86 114 133 135 149 136 130 111
107 105 104 128 141 153 148 125 131 101
105 113 127 121 133 121 156 121 83 111
60 62 85 107 98 121 140 140 153 129
125 111 92 100 104 142 155 156 144 136
108 97 109 106 132 137 118 113 147 143
121 132 107 107 141 105 101 113 121 139
151 121 112 85 96 91 98 162 156 157
151 122 111 97 96 118 132 153 126 123
120 105 125 137 116 142 119 89 108 119
117 134 145 124 111 78 87 86 90 158
156 163 146 101 83 89 83 119 139 164
153 135 153 132 130 128 100 103 100 92
117 115 112 120 133 128 122 105 72 71

