P2
32 30
255
67 89 77 88 98 88 91 102 96 92
95 94 97 97 95 101 102 97 103 103
106 102 105 104 103 103 100 101 99 98
98 96 97 119 107 104 105 95 97 101
93 91 96 97 93 97 93 96 98 94
97 93 95 100 98 97 95 96 93 93
95 95 97 97 97 104 88 89 88 82
81 93 81 84 89 84 91 97 101 105
103 96 98 94 95 99 94 93 93 95
94 94 94 93 97 95 96 83 91 98
91 84 88 97 85 90 97 91 104 112
114 122 120 114 112 98 97 97 94 97
101 99 95 95 98 99 97 96 97 84
89 86 89 85 84 90 77 85 102 106
121 127 129 126 125 114 114 104 96 98
103 101 108 110 94 91 93 97 96 96
97 97 87 90 101 92 99 99 90 87
104 101 122 122 117 111 113 123 128 118
105 116 125 116 106 117 102 90 89 92
92 92 92 96 100 103 101 100 92 105
101 106 110 109 90 83 76 87 96 102
113 126 127 115 123 115 95 115 100 90
90 91 94 98 97 90 90 90 89 105
98 104 88 93 84 91 121 126 87 75
71 70 86 120 133 115 110 102 93 105
100 95 91 92 97 100 102 108 89 88
88 90 86 91 88 89 71 90 109 100
116 75 80 71 66 75 114 114 105 96
93 95 103 102 102 102 105 100 98 109
99 109 91 90 90 112 104 98 80 77
99 97 110 112 61 32 43 73 104 106
90 106 98 101 102 94 94 97 106 99
97 104 113 119 122 119 108 130 137 120
118 102 84 80 119 87 6 4 54 55
97 114 93 113 109 106 103 96 96 95
95 93 96 110 108 106 111 111 101 108
131 112 116 123 106 121 83 34 0 50
79 124 106 89 90 108 106 96 91 94
101 96 92 96 98 114 101 114 97 99
99 109 124 102 119 134 121 148 124 73
49 100 177 193 155 83 112 120 105 92
90 99 106 103 104 102 108 82 81 97
87 87 99 124 121 117 105 138 123 123
121 136 94 90 177 179 135 133 143 108
110 92 94 99 100 101 102 99 106 71
79 93 92 91 96 127 132 151 79 135
133 133 103 183 164 133 117 91 82 136
130 91 100 102 100 103 99 109 95 91
106 75 92 100 110 103 107 102 121 117
100 140 141 141 126 172 113 76 55 88
80 117 99 72 79 74 86 103 104 110
89 94 102 86 95 89 97 104 111 116
135 86 128 152 98 134 130 159 110 74
50 70 78 81 62 86 90 98 92 100
100 105 99 96 107 93 95 93 96 94
110 117 136 143 163 139 113 136 122 126
105 62 37 29 98 52 62 85 92 109
102 107 110 104 100 88 111 84 92 98
98 100 109 103 121 162 185 138 110 123
144 126 90 55 25 74 93 69 82 76
90 104 97 102 114 101 97 107 108 96
105 111 103 114 112 101 107 159 196 112
103 120 147 122 84 59 77 81 86 58
85 80 101 106 89 89 110 108 101 115
114 95 89 93 88 109 107 99 86 137
171 140 117 156 154 119 114 109 134 118
119 95 96 77 107 114 95 91 107 103
100 112 113 116 103 101 81 98 107 114
96 117 157 164 153 109 135 120 120 165
244 204 187 118 75 60 108 114 90 99
104 97 106 105 96 94 85 91 87 93
104 107 95 105 153 198 172 102 111 98
130 250 249 193 160 134 131 107 97 84
58 97 107 106 101 100 93 104 96 104
107 95 101 131 123 115 126 141 124 66
41 88 150 255 201 177 132 136 123 120
112 110 110 118 110 108 117 112 97 108
97 107 104 105 117 123 84 87 98 115
96 75 37 76 98 175 173 142 121 102
83 86 82 97 122 142 115 97 109 114
100 97 88 98 89 97 111 116 79 77
70 83 83 98 46 33 53 148 144 135
102 109 109 108 101 105 94 99 124 116
112 110 89 87 85 96 92 91 98 121
79 90 82 80 63 104 76 39 73 104
118 149 144 136 130 115 100 110 108 95
103 105 120 111 94 81 77 83 85 86
102 107 89 105 100 95 99 101 68 64
107 130 115 141 109 114 112 109 115 103
100 109 119 106 130 116 106 98 86 69
98 100 114 146 104 94 88 66 92 96
125 116 75 91 90 61 86 99 105 100
109 113 120 108 119 122 125 126 102 103
75 66 100 110 131 146 98 95 85 76
112 111 119 109 95 76 90 92 91 96
107 104 117 123 131 127 131 119 134 129

